{"accessors" : [{"bufferView" : 0, "byteOffset" : 0, "componentType" : 5123, "count" : 1953, "type" : "SCALAR", "max" : [1628], "min" : [0]}, {"bufferView" : 1, "byteOffset" : 0, "componentType" : 5126, "count" : 1629, "type" : "VEC3", "max" : [0, 0.016686389222741127, 1.7222719192504883], "min" : [-1.507423996925354, -1.1962738037109375, -1.793576955795288], "name" : "POSITION"}, {"bufferView" : 1, "byteOffset" : 12, "componentType" : 5126, "count" : 1629, "type" : "VEC3", "max" : [0.050298016518354416, 1.0000044107437134, 0.031000196933746338], "min" : [-0.051300328224897385, -1.0000044107437134, -0.03089877963066101], "name" : "NORMAL"}, {"bufferView" : 1, "byteOffset" : 24, "componentType" : 5126, "count" : 1629, "type" : "VEC2", "max" : [1, 1], "min" : [0, 0], "name" : "TEXCOORD_0"}, {"bufferView" : 0, "byteOffset" : 3908, "componentType" : 5123, "count" : 4176, "type" : "SCALAR", "max" : [3428], "min" : [0]}, {"bufferView" : 2, "byteOffset" : 0, "componentType" : 5126, "count" : 3429, "type" : "VEC3", "max" : [50.8800163269043, 10.766408920288086, -107.53498077392578], "min" : [-50.8800163269043, -12.907004356384277, -175.55722045898438], "name" : "POSITION"}, {"bufferView" : 2, "byteOffset" : 12, "componentType" : 5126, "count" : 3429, "type" : "VEC3", "max" : [0.9994385242462158, 0.9967265129089355, 0.99894118309021], "min" : [-0.9994385242462158, -0.9983786940574646, -0.9994598031044006], "name" : "NORMAL"}, {"bufferView" : 2, "byteOffset" : 24, "componentType" : 5126, "count" : 3429, "type" : "VEC2", "max" : [1.000000238418579, 0.9976320862770081], "min" : [0.1250000149011612, 0.00303494930267334], "name" : "TEXCOORD_0"}, {"bufferView" : 0, "byteOffset" : 12260, "componentType" : 5123, "count" : 2400, "type" : "SCALAR", "max" : [1981], "min" : [0]}, {"bufferView" : 3, "byteOffset" : 0, "componentType" : 5126, "count" : 1982, "type" : "VEC3", "max" : [27.20548439025879, 11.165364265441895, -125.2797622680664], "min" : [-27.20548439025879, -14.75108528137207, -146.7939910888672], "name" : "POSITION"}, {"bufferView" : 3, "byteOffset" : 12, "componentType" : 5126, "count" : 1982, "type" : "VEC3", "max" : [0.9868184924125671, 0.9999417066574097, 0.9798313975334167], "min" : [-0.9868184924125671, -0.9999427199363708, -0.9393051862716675], "name" : "NORMAL"}, {"bufferView" : 3, "byteOffset" : 24, "componentType" : 5126, "count" : 1982, "type" : "VEC2", "max" : [1.000000238418579, 0.24686890840530396], "min" : [0.5, 0.016583561897277832], "name" : "TEXCOORD_0"}, {"bufferView" : 0, "byteOffset" : 17060, "componentType" : 5123, "count" : 768, "type" : "SCALAR", "max" : [637], "min" : [0]}, {"bufferView" : 4, "byteOffset" : 0, "componentType" : 5126, "count" : 638, "type" : "VEC3", "max" : [34.018699645996094, 2.39915132522583, -122.30386352539062], "min" : [-34.018699645996094, -10.9729585647583, -138.01321411132812], "name" : "POSITION"}, {"bufferView" : 4, "byteOffset" : 12, "componentType" : 5126, "count" : 638, "type" : "VEC3", "max" : [0.8155945539474487, 0.9912247657775879, 0.9798313975334167], "min" : [-0.8155945539474487, -0.9950682520866394, -0.7316086888313293], "name" : "NORMAL"}, {"bufferView" : 4, "byteOffset" : 24, "componentType" : 5126, "count" : 638, "type" : "VEC2", "max" : [0.8741394281387329, 0.20350611209869385], "min" : [0.646304190158844, 0.16714733839035034], "name" : "TEXCOORD_0"}, {"bufferView" : 0, "byteOffset" : 18596, "componentType" : 5123, "count" : 1920, "type" : "SCALAR", "max" : [1583], "min" : [0]}, {"bufferView" : 5, "byteOffset" : 0, "componentType" : 5126, "count" : 1584, "type" : "VEC3", "max" : [51.779056549072266, 3.964053153991699, -109.44660949707031], "min" : [-51.779056549072266, -7.876729965209961, -129.1107940673828], "name" : "POSITION"}, {"bufferView" : 5, "byteOffset" : 12, "componentType" : 5126, "count" : 1584, "type" : "VEC3", "max" : [0.8489851951599121, 0.9912247657775879, 0.8759188055992126], "min" : [-0.8489851951599121, -0.9939345717430115, -0.8545538783073425], "name" : "NORMAL"}, {"bufferView" : 5, "byteOffset" : 24, "componentType" : 5126, "count" : 1584, "type" : "VEC2", "max" : [0.8741392493247986, 0.17939865589141846], "min" : [0.6463039517402649, 0.1793956756591797], "name" : "TEXCOORD_0"}, {"bufferView" : 0, "byteOffset" : 22436, "componentType" : 5123, "count" : 21744, "type" : "SCALAR", "max" : [17961], "min" : [0]}, {"bufferView" : 6, "byteOffset" : 0, "componentType" : 5126, "count" : 17962, "type" : "VEC3", "max" : [61.755489349365234, 14.272872924804688, -0.07325127720832825], "min" : [-61.755489349365234, -9.860831260681152, -111.2069091796875], "name" : "POSITION"}, {"bufferView" : 6, "byteOffset" : 12, "componentType" : 5126, "count" : 17962, "type" : "VEC3", "max" : [0.9998165965080261, 0.9998922348022461, 0.999961256980896], "min" : [-0.9998165965080261, -0.9998372793197632, -0.9997343420982361], "name" : "NORMAL"}, {"bufferView" : 6, "byteOffset" : 24, "componentType" : 5126, "count" : 17962, "type" : "VEC2", "max" : [0.8793907761573792, 0.9912469983100891], "min" : [0.12499988079071045, -0.0057218074798583984], "name" : "TEXCOORD_0"}, {"bufferView" : 0, "byteOffset" : 65924, "componentType" : 5123, "count" : 1536, "type" : "SCALAR", "max" : [1269], "min" : [0]}, {"bufferView" : 7, "byteOffset" : 0, "componentType" : 5126, "count" : 1270, "type" : "VEC3", "max" : [17.07649803161621, 11.165364265441895, -97.73125457763672], "min" : [-17.07649803161621, -13.423201560974121, -126.54766082763672], "name" : "POSITION"}, {"bufferView" : 7, "byteOffset" : 12, "componentType" : 5126, "count" : 1270, "type" : "VEC3", "max" : [0.9995269775390625, 0.9999417066574097, 0.4713854491710663], "min" : [-0.9995269775390625, -0.9975441694259644, -0.3036012053489685], "name" : "NORMAL"}, {"bufferView" : 7, "byteOffset" : 24, "componentType" : 5126, "count" : 1270, "type" : "VEC2", "max" : [1.0000001192092896, 0.4407002329826355], "min" : [0.5000001788139343, 0.22784918546676636], "name" : "TEXCOORD_0"}, {"bufferView" : 0, "byteOffset" : 68996, "componentType" : 5123, "count" : 1056, "type" : "SCALAR", "max" : [832], "min" : [0]}, {"bufferView" : 8, "byteOffset" : 0, "componentType" : 5126, "count" : 833, "type" : "VEC3", "max" : [16.46787452697754, 9.552166938781738, -79.11936950683594], "min" : [-16.46787452697754, -13.029930114746094, -104.66407775878906], "name" : "POSITION"}, {"bufferView" : 8, "byteOffset" : 12, "componentType" : 5126, "count" : 833, "type" : "VEC3", "max" : [0.9991214871406555, 0.9994033575057983, 0.9992660284042358], "min" : [-0.9990603923797607, -0.9947965741157532, -0.2619916498661041], "name" : "NORMAL"}, {"bufferView" : 8, "byteOffset" : 24, "componentType" : 5126, "count" : 833, "type" : "VEC2", "max" : [0.9567892551422119, 0.4906027913093567], "min" : [0.5209858417510986, 0.4361615777015686], "name" : "TEXCOORD_0"}, {"bufferView" : 0, "byteOffset" : 71108, "componentType" : 5123, "count" : 2880, "type" : "SCALAR", "max" : [2397], "min" : [0]}, {"bufferView" : 9, "byteOffset" : 0, "componentType" : 5126, "count" : 2398, "type" : "VEC3", "max" : [19.267484664916992, 9.18100357055664, -40.778778076171875], "min" : [-19.267484664916992, -12.582354545593262, -92.72484588623047], "name" : "POSITION"}, {"bufferView" : 9, "byteOffset" : 12, "componentType" : 5126, "count" : 2398, "type" : "VEC3", "max" : [0.9980792999267578, 0.9977902770042419, 0.3826996386051178], "min" : [-0.9980244040489197, -0.9904012680053711, -0.45161738991737366], "name" : "NORMAL"}, {"bufferView" : 9, "byteOffset" : 24, "componentType" : 5126, "count" : 2398, "type" : "VEC2", "max" : [0.9156613349914551, 0.49060308933258057], "min" : [0.5567865967750549, 0.4906015992164612], "name" : "TEXCOORD_0"}, {"bufferView" : 0, "byteOffset" : 76868, "componentType" : 5123, "count" : 1440, "type" : "SCALAR", "max" : [1197], "min" : [0]}, {"bufferView" : 10, "byteOffset" : 0, "componentType" : 5126, "count" : 1198, "type" : "VEC3", "max" : [20.639415740966797, 1.1173826456069946, -8.112504005432129], "min" : [-20.639415740966797, -11.604899406433105, -44.85103988647461], "name" : "POSITION"}, {"bufferView" : 10, "byteOffset" : 12, "componentType" : 5126, "count" : 1198, "type" : "VEC3", "max" : [0.9984562993049622, 0.9975436329841614, 0.2168046087026596], "min" : [-0.9984562993049622, -0.9937834143638611, -0.6167973875999451], "name" : "NORMAL"}, {"bufferView" : 10, "byteOffset" : 24, "componentType" : 5126, "count" : 1198, "type" : "VEC2", "max" : [0.9122272729873657, 0.4906027913093567], "min" : [0.575664222240448, 0.4906015992164612], "name" : "TEXCOORD_0"}], "asset" : {"generator" : "Aspose.3D 23.9.0", "version" : "2.0"}, "buffers" : [{"uri" : "data:application/octet-stream;base64,", "byteLength" : 1355728}], "bufferViews" : [{"buffer" : 0, "byteOffset" : 0, "byteLength" : 79748, "target" : 34963}, {"buffer" : 0, "byteOffset" : 79752, "byteLength" : 62496, "byteStride" : 32, "target" : 34962}, {"buffer" : 0, "byteOffset" : 142252, "byteLength" : 133632, "byteStride" : 32, "target" : 34962}, {"buffer" : 0, "byteOffset" : 275888, "byteLength" : 76800, "byteStride" : 32, "target" : 34962}, {"buffer" : 0, "byteOffset" : 352692, "byteLength" : 24576, "byteStride" : 32, "target" : 34962}, {"buffer" : 0, "byteOffset" : 377272, "byteLength" : 61440, "byteStride" : 32, "target" : 34962}, {"buffer" : 0, "byteOffset" : 438716, "byteLength" : 695808, "byteStride" : 32, "target" : 34962}, {"buffer" : 0, "byteOffset" : 1134528, "byteLength" : 49152, "byteStride" : 32, "target" : 34962}, {"buffer" : 0, "byteOffset" : 1183684, "byteLength" : 33792, "byteStride" : 32, "target" : 34962}, {"buffer" : 0, "byteOffset" : 1217480, "byteLength" : 92160, "byteStride" : 32, "target" : 34962}, {"buffer" : 0, "byteOffset" : 1309644, "byteLength" : 46080, "byteStride" : 32, "target" : 34962}], "materials" : [{"name" : "Material.001", "pbrMetallicRoughness" : {"baseColorFactor" : [0.5704711675643921, 0.02904435805976391, 0.07146930694580078, 1], "metallicFactor" : 0, "roughnessFactor" : 0.5}, "emissiveFactor" : [0, 0, 0], "alphaMode" : "OPAQUE", "doubleSided" : true}, {"name" : "Material.002", "pbrMetallicRoughness" : {"baseColorFactor" : [0.018863290548324585, 0.37574952840805054, 0.06000397726893425, 1], "metallicFactor" : 0, "roughnessFactor" : 0.5}, "emissiveFactor" : [0, 0, 0], "alphaMode" : "OPAQUE", "doubleSided" : true}, {"name" : "Material.003", "pbrMetallicRoughness" : {"baseColorFactor" : [0.09165354073047638, 0.5675691366195679, 0.8000000715255737, 1], "metallicFactor" : 0, "roughnessFactor" : 0.5}, "emissiveFactor" : [0, 0, 0], "alphaMode" : "OPAQUE", "doubleSided" : true}, {"name" : "Material.004", "pbrMetallicRoughness" : {"baseColorFactor" : [0.28829625248908997, 0.0015087631763890386, 0.034946903586387634, 1], "metallicFactor" : 0, "roughnessFactor" : 0.5}, "emissiveFactor" : [0, 0, 0], "alphaMode" : "OPAQUE", "doubleSided" : true}, {"name" : "Material.005", "pbrMetallicRoughness" : {"baseColorFactor" : [0.8000000715255737, 0.47712066769599915, 0.015066411346197128, 1], "metallicFactor" : 0, "roughnessFactor" : 0.5}, "emissiveFactor" : [0, 0, 0], "alphaMode" : "OPAQUE", "doubleSided" : true}, {"name" : "Material.006", "pbrMetallicRoughness" : {"baseColorFactor" : [0.8000000715255737, 0.25795209407806396, 0.09000828862190247, 1], "metallicFactor" : 0, "roughnessFactor" : 0.5}, "emissiveFactor" : [0, 0, 0], "alphaMode" : "OPAQUE", "doubleSided" : true}, {"name" : "Material.007", "pbrMetallicRoughness" : {"baseColorFactor" : [0.023062007501721382, 0.8000000715255737, 0.4588279724121094, 1], "metallicFactor" : 0, "roughnessFactor" : 0.5}, "emissiveFactor" : [0, 0, 0], "alphaMode" : "OPAQUE", "doubleSided" : true}, {"name" : "Material.008", "pbrMetallicRoughness" : {"baseColorFactor" : [0.10688717663288116, 0.06794757395982742, 0.8000000715255737, 1], "metallicFactor" : 0, "roughnessFactor" : 0.5}, "emissiveFactor" : [0, 0, 0], "alphaMode" : "OPAQUE", "doubleSided" : true}, {"name" : "Material.009", "pbrMetallicRoughness" : {"baseColorFactor" : [0.8000000715255737, 0.519257664680481, 0.3226437270641327, 1], "metallicFactor" : 0, "roughnessFactor" : 0.5}, "emissiveFactor" : [0, 0, 0], "alphaMode" : "OPAQUE", "doubleSided" : true}], "meshes" : [{"primitives" : [{"attributes" : {"POSITION" : 1, "NORMAL" : 2, "TEXCOORD_0" : 3}, "indices" : 0, "mode" : 4}]}, {"primitives" : [{"attributes" : {"POSITION" : 5, "NORMAL" : 6, "TEXCOORD_0" : 7}, "indices" : 4, "material" : 0, "mode" : 4}, {"attributes" : {"POSITION" : 9, "NORMAL" : 10, "TEXCOORD_0" : 11}, "indices" : 8, "material" : 1, "mode" : 4}, {"attributes" : {"POSITION" : 13, "NORMAL" : 14, "TEXCOORD_0" : 15}, "indices" : 12, "material" : 2, "mode" : 4}, {"attributes" : {"POSITION" : 17, "NORMAL" : 18, "TEXCOORD_0" : 19}, "indices" : 16, "material" : 3, "mode" : 4}, {"attributes" : {"POSITION" : 21, "NORMAL" : 22, "TEXCOORD_0" : 23}, "indices" : 20, "material" : 4, "mode" : 4}, {"attributes" : {"POSITION" : 25, "NORMAL" : 26, "TEXCOORD_0" : 27}, "indices" : 24, "material" : 5, "mode" : 4}, {"attributes" : {"POSITION" : 29, "NORMAL" : 30, "TEXCOORD_0" : 31}, "indices" : 28, "material" : 6, "mode" : 4}, {"attributes" : {"POSITION" : 33, "NORMAL" : 34, "TEXCOORD_0" : 35}, "indices" : 32, "material" : 7, "mode" : 4}, {"attributes" : {"POSITION" : 37, "NORMAL" : 38, "TEXCOORD_0" : 39}, "indices" : 36, "material" : 8, "mode" : 4}]}], "nodes" : [{"matrix" : [2.700000047683716, 0, 0, 0, 0, -4.030765694551519E-07, 3.0000004030765695, 0, 0, -3.0000004030765695, -4.030765694551519E-07, 0, 0.029806852340698242, 0.0596136748790741, 2, 1], "mesh" : 0, "name" : ""}, {"matrix" : [0.10000000149011612, 0, 0, 0, 0, -1.3435885848715362E-08, 0.10000001492600197, 0, 0, -0.10000001492600197, -1.3435885848715362E-08, 0, 0, -10, 0, 1], "mesh" : 1, "name" : "body"}], "scene" : 0, "scenes" : [{"nodes" : [0, 1]}]}